<svg width="1280" height="900" viewBox="0 0 1280 900" fill="none" xmlns="http://www.w3.org/2000/svg">
  <defs>
    <linearGradient id="bg" x1="0" y1="0" x2="1280" y2="900" gradientUnits="userSpaceOnUse">
      <stop stop-color="#0A0A0A"/>
      <stop offset="1" stop-color="#171717"/>
    </linearGradient>
    <linearGradient id="panel" x1="0" y1="0" x2="1040" y2="620" gradientUnits="userSpaceOnUse">
      <stop stop-color="#1F1F1F"/>
      <stop offset="1" stop-color="#111111"/>
    </linearGradient>
  </defs>

  <rect x="0" y="0" width="1280" height="900" rx="28" fill="url(#bg)"/>
  <rect x="64" y="64" width="1152" height="772" rx="22" fill="#0E0E0E" stroke="#2A2A2A" stroke-width="2"/>

  <rect x="96" y="96" width="1088" height="64" rx="12" fill="#141414" stroke="#2E2E2E"/>
  <circle cx="128" cy="128" r="8" fill="#FBBF24"/>
  <rect x="152" y="116" width="220" height="22" rx="6" fill="#2B2B2B"/>
  <rect x="980" y="112" width="172" height="30" rx="8" fill="#FBBF24"/>

  <rect x="96" y="192" width="660" height="612" rx="16" fill="url(#panel)" stroke="#303030"/>
  <rect x="788" y="192" width="396" height="300" rx="16" fill="#171717" stroke="#303030"/>
  <rect x="788" y="504" width="396" height="300" rx="16" fill="#171717" stroke="#303030"/>

  <rect x="136" y="240" width="300" height="18" rx="5" fill="#FBBF24" fill-opacity="0.9"/>
  <rect x="136" y="274" width="520" height="14" rx="4" fill="#3A3A3A"/>
  <rect x="136" y="300" width="460" height="14" rx="4" fill="#333333"/>
  <rect x="136" y="326" width="500" height="14" rx="4" fill="#333333"/>

  <rect x="136" y="382" width="580" height="132" rx="12" fill="#0F0F0F" stroke="#2D2D2D"/>
  <rect x="160" y="406" width="120" height="10" rx="3" fill="#6B7280"/>
  <rect x="160" y="430" width="520" height="10" rx="3" fill="#2F2F2F"/>
  <rect x="160" y="452" width="490" height="10" rx="3" fill="#2F2F2F"/>
  <rect x="160" y="474" width="410" height="10" rx="3" fill="#2F2F2F"/>

  <rect x="136" y="538" width="580" height="132" rx="12" fill="#0F0F0F" stroke="#2D2D2D"/>
  <rect x="160" y="562" width="160" height="10" rx="3" fill="#6B7280"/>
  <rect x="160" y="586" width="520" height="10" rx="3" fill="#2F2F2F"/>
  <rect x="160" y="608" width="450" height="10" rx="3" fill="#2F2F2F"/>
  <rect x="160" y="630" width="300" height="10" rx="3" fill="#2F2F2F"/>

  <rect x="136" y="706" width="210" height="44" rx="10" fill="#FBBF24"/>
  <rect x="362" y="706" width="220" height="44" rx="10" fill="#1F1F1F" stroke="#3B3B3B"/>

  <rect x="820" y="236" width="180" height="14" rx="4" fill="#FBBF24"/>
  <rect x="820" y="268" width="320" height="10" rx="3" fill="#313131"/>
  <rect x="820" y="290" width="280" height="10" rx="3" fill="#313131"/>
  <rect x="820" y="330" width="332" height="136" rx="12" fill="#0F0F0F" stroke="#2D2D2D"/>

  <rect x="820" y="548" width="200" height="14" rx="4" fill="#FBBF24"/>
  <rect x="820" y="580" width="320" height="10" rx="3" fill="#313131"/>
  <rect x="820" y="602" width="290" height="10" rx="3" fill="#313131"/>
  <rect x="820" y="642" width="332" height="136" rx="12" fill="#0F0F0F" stroke="#2D2D2D"/>

  <text x="136" y="216" fill="#D4D4D4" font-family="Arial, Helvetica, sans-serif" font-size="20" font-weight="700">Tom Integrations AI Receptionist</text>
</svg>
